<svg width="24" height="24" viewBox="0 0 24 24" fill="none" xmlns="http://www.w3.org/2000/svg">
<g clip-path="url(#clip0_113_271)">
<path d="M9.88299 2.20691C10.3587 2.15085 10.8379 2.27651 11.2249 2.55872C11.6119 2.84093 11.878 3.25888 11.97 3.72891L11.995 3.89591L12 3.99991V7.99991C11.9999 8.20198 11.9386 8.39929 11.8242 8.56584C11.7098 8.73239 11.5476 8.86037 11.359 8.93291L11.252 8.96791C10.7308 9.10341 10.2539 9.37233 9.86831 9.74818C9.48268 10.124 9.20161 10.5939 9.05278 11.1114C8.90395 11.6289 8.8925 12.1763 9.01954 12.6996C9.14659 13.2228 9.40776 13.704 9.77732 14.0957C10.1469 14.4873 10.6121 14.776 11.1271 14.9332C11.6422 15.0903 12.1893 15.1107 12.7146 14.9921C13.2399 14.8735 13.7252 14.6202 14.1228 14.257C14.5204 13.8938 14.8165 13.4333 14.982 12.9209L15.032 12.7479C15.0828 12.5523 15.1918 12.3767 15.3444 12.2443C15.497 12.1118 15.6862 12.0287 15.887 12.0059L16 11.9999H19.8C20.3304 11.9999 20.8391 12.2106 21.2142 12.5857C21.5893 12.9608 21.8 13.4695 21.8 13.9999C21.7999 14.076 21.7912 14.1518 21.774 14.2259C21.3738 15.9526 20.5219 17.5418 19.3055 18.831C18.0891 20.1201 16.5519 21.0628 14.8513 21.5624C13.1508 22.0621 11.348 22.1008 9.62757 21.6746C7.90715 21.2484 6.33092 20.3726 5.06029 19.1369C3.78967 17.9011 2.87031 16.3499 2.39636 14.642C1.92242 12.9341 1.91092 11.1309 2.36305 9.41715C2.81517 7.70336 3.71468 6.14052 4.96944 4.88869C6.22421 3.63686 7.78914 2.74102 9.50399 2.29291L9.77399 2.22591L9.88399 2.20591L9.88299 2.20691Z" fill="currentColor"/>
<path d="M14.775 2.526C14.8471 2.50918 14.9209 2.50046 14.995 2.5L15.117 2.507L15.229 2.527L15.332 2.557C16.693 3.03611 17.9343 3.80408 18.9705 4.80818C20.0067 5.81228 20.8133 7.02872 21.335 8.374L21.443 8.668C21.4927 8.80928 21.5101 8.95992 21.4938 9.10882C21.4776 9.25771 21.428 9.40104 21.349 9.52823C21.2699 9.65542 21.1632 9.76322 21.0369 9.84366C20.9105 9.92411 20.7677 9.97514 20.619 9.993L20.5 10H16C15.8556 10 15.7128 9.96873 15.5816 9.90831C15.4504 9.84789 15.3339 9.75977 15.24 9.65C14.9672 9.33042 14.6696 9.03283 14.35 8.76C14.1608 8.598 14.0388 8.3712 14.008 8.124L14 8V3.505L14.006 3.387C14.011 3.345 14.018 3.307 14.026 3.271L14.056 3.168C14.0943 3.05939 14.1512 2.95823 14.224 2.869L14.295 2.789C14.325 2.761 14.353 2.737 14.382 2.714L14.472 2.651L14.56 2.601L14.663 2.558L14.775 2.526Z" fill="currentColor"/>
</g>
<defs>
<clipPath id="clip0_113_271">
<rect width="24" height="24" fill="white"/>
</clipPath>
</defs>
</svg>
