<svg width="24" height="24" viewBox="0 0 24 24" fill="none" xmlns="http://www.w3.org/2000/svg">
<g clip-path="url(#clip0_113_262)">
<path d="M10 3H4C3.73478 3 3.48043 3.10536 3.29289 3.29289C3.10536 3.48043 3 3.73478 3 4V10C3 10.2652 3.10536 10.5196 3.29289 10.7071C3.48043 10.8946 3.73478 11 4 11H10C10.2652 11 10.5196 10.8946 10.7071 10.7071C10.8946 10.5196 11 10.2652 11 10V4C11 3.73478 10.8946 3.48043 10.7071 3.29289C10.5196 3.10536 10.2652 3 10 3Z" fill="currentColor"/>
<path d="M20.7143 12.8572H14.7143C14.4491 12.8572 14.1947 12.9625 14.0072 13.1501C13.8197 13.3376 13.7143 13.592 13.7143 13.8572V19.8572C13.7143 20.1224 13.8197 20.3767 14.0072 20.5643C14.1947 20.7518 14.4491 20.8572 14.7143 20.8572H20.7143C20.9795 20.8572 21.2339 20.7518 21.4214 20.5643C21.6089 20.3767 21.7143 20.1224 21.7143 19.8572V13.8572C21.7143 13.592 21.6089 13.3376 21.4214 13.1501C21.2339 12.9625 20.9795 12.8572 20.7143 12.8572Z" fill="currentColor"/>
<path d="M10 13H4C3.73478 13 3.48043 13.1054 3.29289 13.2929C3.10536 13.4804 3 13.7348 3 14V20C3 20.2652 3.10536 20.5196 3.29289 20.7071C3.48043 20.8946 3.73478 21 4 21H10C10.2652 21 10.5196 20.8946 10.7071 20.7071C10.8946 20.5196 11 20.2652 11 20V14C11 13.7348 10.8946 13.4804 10.7071 13.2929C10.5196 13.1054 10.2652 13 10 13Z" fill="currentColor"/>
<path d="M17.5714 3.42847C18.3261 3.42847 19.0642 3.64984 19.6943 4.06518C20.3243 4.48051 20.8187 5.07155 21.1162 5.7651C21.4137 6.45865 21.5012 7.22423 21.3679 7.96701C21.2346 8.7098 20.8863 9.39716 20.3662 9.94396C19.8461 10.4908 19.177 10.873 18.4418 11.0433C17.7066 11.2136 16.9376 11.1644 16.2301 10.902C15.5225 10.6396 14.9075 10.1753 14.4612 9.56679C14.0149 8.95827 13.7568 8.23218 13.7191 7.47847L13.7143 7.28561L13.7191 7.09275C13.7686 6.1044 14.1961 5.17287 14.9131 4.49084C15.6301 3.80882 16.5818 3.42847 17.5714 3.42847Z" fill="currentColor"/>
</g>
<defs>
<clipPath id="clip0_113_262">
<rect width="24" height="24" fill="white"/>
</clipPath>
</defs>
</svg>
