<svg width="24" height="24" viewBox="0 0 24 24" fill="none" xmlns="http://www.w3.org/2000/svg">
<g clip-path="url(#clip0_113_278)">
<path d="M14.647 4.08101C14.6738 4.19174 14.7264 4.29457 14.8005 4.38115C14.8745 4.46773 14.968 4.53561 15.0732 4.57926C15.1785 4.62292 15.2925 4.64112 15.4061 4.63239C15.5197 4.62365 15.6297 4.58823 15.727 4.52901C18.166 3.04401 20.957 5.83401 19.472 8.27301C19.4128 8.37027 19.3773 8.48014 19.3685 8.59368C19.3597 8.70722 19.3778 8.82123 19.4214 8.92646C19.465 9.03168 19.5327 9.12515 19.6192 9.19926C19.7056 9.27338 19.8084 9.32605 19.919 9.35301C22.694 10.026 22.694 13.973 19.919 14.647C19.8083 14.6738 19.7054 14.7264 19.6189 14.8005C19.5323 14.8745 19.4644 14.968 19.4207 15.0732C19.3771 15.1785 19.3589 15.2925 19.3676 15.4061C19.3764 15.5197 19.4118 15.6297 19.471 15.727C20.956 18.166 18.166 20.957 15.727 19.472C15.6297 19.4128 15.5199 19.3773 15.4063 19.3685C15.2928 19.3597 15.1788 19.3778 15.0736 19.4214C14.9683 19.465 14.8749 19.5327 14.8007 19.6192C14.7266 19.7056 14.674 19.8084 14.647 19.919C13.974 22.694 10.027 22.694 9.35301 19.919C9.32618 19.8083 9.27359 19.7054 9.19953 19.6189C9.12546 19.5323 9.03201 19.4644 8.92677 19.4207C8.82153 19.3771 8.70747 19.3589 8.59387 19.3676C8.48027 19.3764 8.37034 19.4118 8.27301 19.471C5.83401 20.956 3.04301 18.166 4.52801 15.727C4.58724 15.6297 4.62269 15.5199 4.63148 15.4063C4.64028 15.2928 4.62216 15.1788 4.57861 15.0736C4.53506 14.9683 4.4673 14.8749 4.38084 14.8007C4.29438 14.7266 4.19165 14.674 4.08101 14.647C1.30601 13.974 1.30601 10.027 4.08101 9.35301C4.19174 9.32618 4.29457 9.27359 4.38115 9.19953C4.46773 9.12546 4.53561 9.03201 4.57926 8.92677C4.62292 8.82153 4.64112 8.70747 4.63239 8.59387C4.62365 8.48027 4.58823 8.37034 4.52901 8.27301C3.04401 5.83401 5.83401 3.04301 8.27301 4.52801C8.37017 4.58769 8.48009 4.6235 8.59376 4.63252C8.70744 4.64154 8.82163 4.62351 8.92699 4.5799C9.03235 4.53629 9.12589 4.46835 9.19993 4.38163C9.27398 4.29492 9.32644 4.1919 9.35301 4.08101C10.026 1.30601 13.973 1.30601 14.647 4.08101ZM12 9.00001C11.2044 9.00001 10.4413 9.31608 9.87869 9.87869C9.31608 10.4413 9.00001 11.2044 9.00001 12C9.00001 12.7957 9.31608 13.5587 9.87869 14.1213C10.4413 14.6839 11.2044 15 12 15C12.7957 15 13.5587 14.6839 14.1213 14.1213C14.6839 13.5587 15 12.7957 15 12C15 11.2044 14.6839 10.4413 14.1213 9.87869C13.5587 9.31608 12.7957 9.00001 12 9.00001Z" fill="currentColor"/>
</g>
<defs>
<clipPath id="clip0_113_278">
<rect width="24" height="24" fill="white"/>
</clipPath>
</defs>
</svg>
